<svg width="35" height="40" viewBox="0 0 35 40" fill="none" xmlns="http://www.w3.org/2000/svg">
<path fill-rule="evenodd" clip-rule="evenodd" d="M6.79481 13.3063C7.2531 13.4418 7.74722 13.2196 7.89839 12.8098C9.26985 9.10034 13.1283 6.60828 17.5 6.60828C23.0749 6.60828 27.6107 10.6644 27.6107 15.6503C27.6107 19.5038 25.6806 21.806 24.13 23.656C23.0018 25.0015 22.0276 26.1639 22.0276 27.5735C22.0276 27.6663 22.0262 27.7582 22.0238 27.8494H18.3735V26.0547C18.3735 25.6232 17.9825 25.2734 17.5 25.2734C17.0174 25.2734 16.6264 25.6232 16.6264 26.0547V27.8494H12.9758C12.9734 27.7582 12.972 27.6663 12.972 27.5735C12.972 26.1636 11.9977 25.0015 10.8696 23.6557C9.72746 22.2931 8.43312 20.7486 7.79124 18.5541C7.66908 18.1366 7.19133 17.8867 6.72485 17.9959C6.25837 18.1049 5.9789 18.5321 6.10106 18.9493C6.82962 21.4404 8.29457 23.1885 9.47186 24.5929C10.4512 25.7614 11.2248 26.6843 11.2248 27.5735C11.2248 27.9477 11.2426 28.3127 11.277 28.6609V35.2692C11.277 35.2902 11.2787 35.3107 11.2805 35.3311C11.2811 35.336 11.2808 35.3412 11.2815 35.3461C11.2846 35.3751 11.2897 35.4031 11.2962 35.4312V35.4318C11.5995 36.7044 12.3762 37.8616 13.4839 38.6902C14.6127 39.5349 16.0391 40 17.5 40C18.9608 40 20.3869 39.5349 21.5161 38.6902C22.6234 37.8616 23.4004 36.7044 23.7034 35.4318C23.7034 35.4315 23.7038 35.4312 23.7038 35.4309C23.7102 35.4031 23.715 35.3751 23.7184 35.3461C23.7188 35.3412 23.7188 35.336 23.7191 35.3311C23.7208 35.3104 23.7225 35.2899 23.7225 35.2689V28.6609C23.757 28.3127 23.7751 27.9477 23.7751 27.5735C23.7751 26.6843 24.5487 25.7614 25.5281 24.5929C27.1442 22.6648 29.3578 20.0244 29.3578 15.6503C29.3578 9.80286 24.0382 5.04578 17.5 5.04578C12.3731 5.04578 7.84823 7.96875 6.23961 12.3193C6.08809 12.7289 6.33686 13.1708 6.79481 13.3063V13.3063ZM17.5 38.4375C15.7238 38.4375 14.122 37.4768 13.3631 36.0501H21.6369C20.8776 37.4768 19.2758 38.4375 17.5 38.4375ZM21.9757 34.4876H13.0242V32.731H21.9757V34.4876ZM21.9757 31.1685H13.0242V29.4119H21.9757V31.1685Z" fill="white"/>
<path fill-rule="evenodd" clip-rule="evenodd" d="M17.5 3.6441C17.9825 3.6441 18.3736 3.29437 18.3736 2.86285V0.78125C18.3736 0.349731 17.9825 0 17.5 0C17.0175 0 16.6264 0.349731 16.6264 0.78125V2.86285C16.6264 3.29437 17.0175 3.6441 17.5 3.6441Z" fill="white"/>
<path fill-rule="evenodd" clip-rule="evenodd" d="M0.873584 16.4316H3.20121C3.68373 16.4316 4.07479 16.0818 4.07479 15.6503C4.07479 15.2188 3.68373 14.8691 3.20121 14.8691H0.873584C0.391065 14.8691 0 15.2188 0 15.6503C0 16.0818 0.391065 16.4316 0.873584 16.4316Z" fill="white"/>
<path fill-rule="evenodd" clip-rule="evenodd" d="M21.4997 17.2287C21.4997 16.7972 21.1086 16.4475 20.6261 16.4475H14.3739C13.8913 16.4475 13.5003 16.7972 13.5003 17.2287C13.5003 17.6602 13.8913 18.01 14.3739 18.01H16.6264V19.8047C16.6264 20.2362 17.0175 20.586 17.5 20.586C17.9825 20.586 18.3736 20.2362 18.3736 19.8047V18.01H20.6261C21.1086 18.01 21.4997 17.6602 21.4997 17.2287Z" fill="white"/>
<path fill-rule="evenodd" clip-rule="evenodd" d="M6.77162 7.16065C6.94224 7.31323 7.16576 7.38953 7.38927 7.38953C7.61278 7.38953 7.8363 7.31323 8.00692 7.16065C8.34816 6.85547 8.34816 6.36078 8.00692 6.05591L6.3611 4.58405C6.01986 4.27887 5.4667 4.27887 5.12546 4.58405C4.78456 4.88892 4.78456 5.38361 5.12546 5.68878L6.77162 7.16065Z" fill="white"/>
<path fill-rule="evenodd" clip-rule="evenodd" d="M5.14082 27.4844C5.36434 27.4844 5.58785 27.4081 5.75847 27.2556L7.40429 25.7837C7.74553 25.4785 7.74553 24.9841 7.40429 24.679C7.06305 24.3738 6.50989 24.3738 6.16899 24.679L4.52283 26.1508C4.18193 26.456 4.18193 26.9507 4.52283 27.2556C4.69345 27.4081 4.91696 27.4844 5.14082 27.4844Z" fill="white"/>
<path fill-rule="evenodd" clip-rule="evenodd" d="M27.6107 7.38953C27.8342 7.38953 28.0577 7.31324 28.2284 7.16065L29.8742 5.68879C30.2154 5.38361 30.2154 4.88892 29.8742 4.58375C29.5333 4.27857 28.9801 4.27888 28.6389 4.58375L26.9931 6.05561C26.6518 6.36079 26.6518 6.85548 26.9927 7.16065C27.1633 7.31324 27.3872 7.38953 27.6107 7.38953V7.38953Z" fill="white"/>
<path fill-rule="evenodd" clip-rule="evenodd" d="M27.5957 24.679C27.2544 24.9838 27.2544 25.4785 27.5957 25.7837L29.2415 27.2556C29.4121 27.4081 29.6356 27.4844 29.8592 27.4844C30.0827 27.4844 30.3062 27.4081 30.4768 27.2556C30.818 26.9507 30.818 26.456 30.4768 26.1508L28.831 24.679C28.4897 24.3738 27.9366 24.3738 27.5957 24.679Z" fill="white"/>
<path fill-rule="evenodd" clip-rule="evenodd" d="M31.7988 16.4316H34.1264C34.6089 16.4316 35 16.0818 35 15.6503C35 15.2188 34.6089 14.8691 34.1264 14.8691H31.7988C31.3163 14.8691 30.9252 15.2188 30.9252 15.6503C30.9252 16.0818 31.3163 16.4316 31.7988 16.4316Z" fill="white"/>
<path fill-rule="evenodd" clip-rule="evenodd" d="M17.5 22.1484C17.0188 22.1484 16.6264 22.4994 16.6264 22.9297C16.6264 23.36 17.0188 23.7109 17.5 23.7109C17.9811 23.7109 18.3736 23.36 18.3736 22.9297C18.3736 22.4994 17.9811 22.1484 17.5 22.1484Z" fill="white"/>
<path fill-rule="evenodd" clip-rule="evenodd" d="M7.38929 15.6503C7.38929 15.22 6.99686 14.8691 6.5157 14.8691C6.03421 14.8691 5.64212 15.22 5.64212 15.6503C5.64212 16.0806 6.03421 16.4316 6.5157 16.4316C6.99686 16.4316 7.38929 16.0806 7.38929 15.6503Z" fill="white"/>
</svg>
