<svg width="599" height="404" viewBox="0 0 599 404" fill="none" xmlns="http://www.w3.org/2000/svg">
<g clip-path="url(#clip0)">
<path d="M597.359 291.745C597.359 315.691 465.533 403.871 300.895 403.871C136.258 403.871 6.6604 309.9 6.6604 285.954C6.6604 262.008 136.258 317.143 300.895 317.143C465.533 317.143 597.359 267.778 597.359 291.745Z" fill="#3F3D56"/>
<path d="M598.994 282.187C598.994 282.506 598.994 282.824 598.994 283.148C598.633 293.1 593.09 302.998 582.975 309.987C572.245 317.391 557.855 321.288 543.083 323.776C540.773 324.165 538.452 324.515 536.136 324.855C534.954 325.017 533.777 325.179 532.606 325.33C499.72 329.648 466.142 330.473 432.722 331.267C397.763 332.13 362.771 332.983 327.774 333.426L320.833 333.507C267.733 334.079 214.655 333.598 161.75 330.587C145.331 329.659 128.75 328.428 112.471 326.356C110.15 326.071 107.837 325.76 105.53 325.422C83.9406 322.33 62.9932 317.586 43.9079 309.884C39.4026 308.086 34.9957 306.05 30.7058 303.786C18.7182 297.423 8.60881 289.376 3.6054 279.5C0.694871 273.709 -0.503459 267.209 0.151055 260.762C0.365122 258.418 0.767631 256.095 1.35468 253.816C2.8595 248.177 5.15455 242.778 8.17162 237.782C15.9655 224.603 27.6725 212.789 37.7657 200.414C59.3121 174.039 73.3454 140.713 53.4613 113.68C47.7563 105.914 39.509 99.1086 34.8618 90.9863C32.3758 86.5986 30.8248 81.7439 30.3064 76.7277C30.0541 74.4215 29.9586 72.1009 30.0204 69.7819C30.2408 64.3664 30.9179 58.9792 32.0444 53.6775C35.2828 37.0983 41.3333 19.2238 60.0192 8.88332C72.7733 1.82418 89.0303 -0.366964 105.514 0.0485969C107.828 0.102566 110.141 0.210503 112.455 0.37241C118.775 0.787971 125.058 1.55433 131.125 2.53117C168.604 8.51632 203.196 21.0209 238.118 32.3112C264.705 40.9031 292.243 48.9391 320.817 52.7709C323.127 53.0785 325.437 53.3645 327.758 53.6128C334.456 54.3468 341.214 54.8325 348.025 55.0322C381.927 56.0036 421.479 48.6638 443.991 29.602C465.738 11.177 506.521 9.69285 536.12 20.6971L536.563 20.8644C538.79 21.7135 540.949 22.6274 543.039 23.606C564.85 33.8601 579.461 51.4216 581.523 69.7981C581.781 72.0805 581.842 74.3808 581.707 76.6737C581.709 76.697 581.709 76.7206 581.707 76.7439C580.292 99.3515 561.812 118.338 543.045 137.356C540.724 139.704 538.398 142.052 536.098 144.416C530.01 150.665 524.111 156.963 518.994 163.445C516.657 166.383 514.509 169.465 512.56 172.674C510.77 175.633 509.24 178.743 507.989 181.967C506.669 185.305 505.82 188.811 505.468 192.383C504.942 197.504 505.878 202.668 508.167 207.279L508.215 207.387C513.224 217.317 523.825 224.354 536.098 230.593C538.36 231.748 540.686 232.871 543.045 233.982C556.355 240.264 570.696 246.098 581.599 253.854C584.538 255.898 587.281 258.21 589.792 260.762C590.814 261.82 591.78 262.931 592.685 264.092C596.666 269.121 598.881 275.321 598.989 281.734C598.994 281.896 598.994 282.042 598.994 282.187Z" fill="#6C63FF"/>
<path d="M598.994 282.187C598.994 282.506 598.994 282.824 598.994 283.148C598.633 293.1 593.09 302.998 582.975 309.987C572.245 317.391 557.855 321.288 543.083 323.776C540.773 324.165 538.452 324.515 536.136 324.855C534.954 325.017 533.777 325.179 532.606 325.33C499.72 329.648 466.142 330.473 432.722 331.267C397.763 332.13 362.771 332.983 327.774 333.426L320.833 333.507C267.733 334.079 214.655 333.598 161.75 330.587C145.331 329.659 128.75 328.428 112.471 326.356C110.15 326.071 107.837 325.76 105.53 325.422C83.9406 322.33 62.9932 317.586 43.9079 309.884C39.4026 308.086 34.9957 306.05 30.7058 303.786C18.7182 297.423 8.60881 289.376 3.6054 279.5C0.694871 273.709 -0.503459 267.209 0.151055 260.762C0.365122 258.418 0.767631 256.095 1.35468 253.816C2.8595 248.177 5.15455 242.778 8.17162 237.782C15.9655 224.603 27.6725 212.789 37.7657 200.414C59.3121 174.039 73.3454 140.713 53.4613 113.68C47.7563 105.914 39.509 99.1086 34.8618 90.9863C32.3758 86.5986 30.8248 81.7439 30.3064 76.7277C30.0541 74.4215 29.9586 72.1009 30.0204 69.7819C30.2408 64.3664 30.9179 58.9792 32.0444 53.6775C35.2828 37.0983 41.3333 19.2238 60.0192 8.88332C72.7733 1.82418 89.0303 -0.366964 105.514 0.0485969C107.828 0.102566 110.141 0.210503 112.455 0.37241C118.775 0.787971 125.058 1.55433 131.125 2.53117C168.604 8.51632 203.196 21.0209 238.118 32.3112C264.705 40.9031 292.243 48.9391 320.817 52.7709C323.127 53.0785 325.437 53.3645 327.758 53.6128C334.456 54.3468 341.214 54.8325 348.025 55.0322C381.927 56.0036 421.479 48.6638 443.991 29.602C465.738 11.177 506.521 9.69285 536.12 20.6971L536.563 20.8644C538.79 21.7135 540.949 22.6274 543.039 23.606C564.85 33.8601 579.461 51.4216 581.523 69.7981C581.781 72.0805 581.842 74.3808 581.707 76.6737C581.709 76.697 581.709 76.7206 581.707 76.7439C580.292 99.3515 561.812 118.338 543.045 137.356C540.724 139.704 538.398 142.052 536.098 144.416C530.01 150.665 524.111 156.963 518.994 163.445C516.657 166.383 514.509 169.465 512.56 172.674C510.77 175.633 509.24 178.743 507.989 181.967C506.669 185.305 505.82 188.811 505.468 192.383C504.942 197.504 505.878 202.668 508.167 207.279L508.215 207.387C513.224 217.317 523.825 224.354 536.098 230.593C538.36 231.748 540.686 232.871 543.045 233.982C556.355 240.264 570.696 246.098 581.599 253.854C584.538 255.898 587.281 258.21 589.792 260.762C590.814 261.82 591.78 262.931 592.685 264.092C596.666 269.121 598.881 275.321 598.989 281.734C598.994 281.896 598.994 282.042 598.994 282.187Z" fill="url(#paint0_linear)"/>
<path d="M543.067 23.606V137.351C540.746 139.704 538.419 142.052 536.12 144.416V20.6971L543.067 23.606Z" fill="#3F3D56"/>
<path d="M581.734 76.6737C581.736 76.697 581.736 76.7205 581.734 76.7438H30.3065C30.0544 74.4377 29.9588 72.1171 30.0204 69.798H581.55C581.808 72.0804 581.87 74.3808 581.734 76.6737V76.6737Z" fill="#3F3D56"/>
<path d="M130.25 40.7789C131.368 40.7789 132.275 39.8728 132.275 38.7551C132.275 37.6374 131.368 36.7313 130.25 36.7313C129.133 36.7313 128.226 37.6374 128.226 38.7551C128.226 39.8728 129.133 40.7789 130.25 40.7789Z" fill="#E7EFFD"/>
<path d="M65.4275 36.7259C66.5453 36.7259 67.4515 35.8198 67.4515 34.7021C67.4515 33.5843 66.5453 32.6782 65.4275 32.6782C64.3096 32.6782 63.4034 33.5843 63.4034 34.7021C63.4034 35.8198 64.3096 36.7259 65.4275 36.7259Z" fill="#E7EFFD"/>
<path d="M153.114 39.624C153.594 39.624 153.983 39.2349 153.983 38.7551C153.983 38.2752 153.594 37.8862 153.114 37.8862C152.634 37.8862 152.245 38.2752 152.245 38.7551C152.245 39.2349 152.634 39.624 153.114 39.624Z" fill="#E7EFFD"/>
<path d="M87.9995 37.6002C88.4794 37.6002 88.8685 37.2111 88.8685 36.7313C88.8685 36.2514 88.4794 35.8624 87.9995 35.8624C87.5196 35.8624 87.1305 36.2514 87.1305 36.7313C87.1305 37.2111 87.5196 37.6002 87.9995 37.6002Z" fill="#E7EFFD"/>
<path d="M87.1359 98.2882C87.6158 98.2882 88.0049 97.8992 88.0049 97.4193C88.0049 96.9394 87.6158 96.5504 87.1359 96.5504C86.656 96.5504 86.2669 96.9394 86.2669 97.4193C86.2669 97.8992 86.656 98.2882 87.1359 98.2882Z" fill="#E7EFFD"/>
<path d="M487.932 52.4254C488.412 52.4254 488.801 52.0364 488.801 51.5565C488.801 51.0766 488.412 50.6876 487.932 50.6876C487.452 50.6876 487.063 51.0766 487.063 51.5565C487.063 52.0364 487.452 52.4254 487.932 52.4254Z" fill="#E7EFFD"/>
<path d="M193.627 53.2242C194.107 53.2242 194.496 52.8352 194.496 52.3553C194.496 51.8754 194.107 51.4864 193.627 51.4864C193.147 51.4864 192.758 51.8754 192.758 52.3553C192.758 52.8352 193.147 53.2242 193.627 53.2242Z" fill="#E7EFFD"/>
<path d="M445.103 51.4864C445.583 51.4864 445.972 51.0974 445.972 50.6175C445.972 50.1376 445.583 49.7486 445.103 49.7486C444.623 49.7486 444.234 50.1376 444.234 50.6175C444.234 51.0974 444.623 51.4864 445.103 51.4864Z" fill="#E7EFFD"/>
<path d="M554.493 54.0931C554.973 54.0931 555.362 53.7041 555.362 53.2242C555.362 52.7443 554.973 52.3553 554.493 52.3553C554.013 52.3553 553.624 52.7443 553.624 53.2242C553.624 53.7041 554.013 54.0931 554.493 54.0931Z" fill="#E7EFFD"/>
<path d="M598.995 282.187C598.995 282.506 598.995 282.824 598.995 283.148C598.719 293.175 593.165 303.176 582.975 310.213C572.245 317.618 557.856 321.515 543.083 324.003C540.773 324.391 538.452 324.742 536.136 325.082C534.954 325.244 533.778 325.406 532.606 325.557C524.51 326.636 516.371 327.462 508.205 328.153C497.248 329.081 486.237 329.723 475.216 330.198C461.064 330.819 446.885 331.17 432.722 331.52C405.038 332.2 377.333 332.88 349.602 333.35L339.762 333.512L327.758 333.674L320.817 333.755C277.098 334.219 233.444 333.981 189.865 332.2C186.965 332.085 184.07 331.959 181.18 331.823C174.704 331.538 168.227 331.209 161.75 330.835C148.769 330.101 135.686 329.173 122.743 327.797C119.31 327.437 115.892 327.039 112.488 326.604C110.167 326.32 107.853 326.008 105.546 325.67C102.977 325.31 100.419 324.918 97.8713 324.494C78.9804 321.407 60.7425 316.938 43.9241 310.127C39.4149 308.32 35.0029 306.279 30.7059 304.012V209.027C33.1023 206.248 35.4826 203.468 37.7711 200.657C40.5238 197.278 43.1685 193.797 45.5973 190.224H97.8444V158.032H189.87V228.807H339.762V172.679H512.695C510.939 175.543 509.424 178.549 508.167 181.665V181.967H507.967C506.647 185.305 505.799 188.811 505.447 192.383C504.921 197.503 505.856 202.668 508.145 207.279V207.505L508.194 207.613C513.203 217.543 523.803 224.581 536.077 230.82C538.338 231.975 540.665 233.097 543.023 234.209C556.198 240.426 570.394 246.212 581.253 253.854L581.577 254.08C584.436 256.064 587.112 258.3 589.571 260.762C589.652 260.837 589.722 260.913 589.792 260.988C590.814 262.047 591.78 263.158 592.685 264.318C596.617 269.288 598.83 275.399 598.989 281.734C598.995 281.896 598.995 282.042 598.995 282.187Z" fill="#6C63FF"/>
<path opacity="0.3" d="M598.995 282.187C598.995 282.506 598.995 282.824 598.995 283.148C598.719 293.175 593.165 303.176 582.975 310.213C572.245 317.618 557.856 321.515 543.083 324.003C540.773 324.391 538.452 324.742 536.136 325.082C534.954 325.244 533.778 325.406 532.606 325.557C524.51 326.636 516.371 327.462 508.205 328.153C497.248 329.081 486.237 329.723 475.216 330.198C461.064 330.819 446.885 331.17 432.722 331.52C405.038 332.2 377.333 332.88 349.602 333.35L339.762 333.512L327.758 333.674L320.817 333.755C277.098 334.219 233.444 333.981 189.865 332.2C186.965 332.085 184.07 331.959 181.18 331.823C174.704 331.538 168.227 331.209 161.75 330.835C148.769 330.101 135.686 329.173 122.743 327.797C119.31 327.437 115.892 327.039 112.488 326.604C110.167 326.32 107.853 326.008 105.546 325.67C102.977 325.31 100.419 324.918 97.8713 324.494C78.9804 321.407 60.7425 316.938 43.9241 310.127C39.4149 308.32 35.0029 306.279 30.7059 304.012V209.027C33.1023 206.248 35.4826 203.468 37.7711 200.657C40.5238 197.278 43.1685 193.797 45.5973 190.224H97.8444V158.032H189.87V228.807H339.762V172.679H512.695C510.939 175.543 509.424 178.549 508.167 181.665V181.967H507.967C506.647 185.305 505.799 188.811 505.447 192.383C504.921 197.503 505.856 202.668 508.145 207.279V207.505L508.194 207.613C513.203 217.543 523.803 224.581 536.077 230.82C538.338 231.975 540.665 233.097 543.023 234.209C556.198 240.426 570.394 246.212 581.253 253.854L581.577 254.08C584.436 256.064 587.112 258.3 589.571 260.762C589.652 260.837 589.722 260.913 589.792 260.988C590.814 262.047 591.78 263.158 592.685 264.318C596.617 269.288 598.83 275.399 598.989 281.734C598.995 281.896 598.995 282.042 598.995 282.187Z" fill="black"/>
<path opacity="0.4" d="M63.3063 203.35H47.8697V213.766H63.3063V203.35Z" fill="black"/>
<path opacity="0.4" d="M88.0049 203.35H72.5682V213.766H88.0049V203.35Z" fill="black"/>
<path opacity="0.4" d="M371.601 181.94H356.165V192.356H371.601V181.94Z" fill="black"/>
<path opacity="0.4" d="M413.275 181.94H397.838V192.356H413.275V181.94Z" fill="black"/>
<path opacity="0.4" d="M458.03 181.94H442.594V192.356H458.03V181.94Z" fill="black"/>
<path opacity="0.4" d="M371.601 213.771H356.165V224.187H371.601V213.771Z" fill="black"/>
<path opacity="0.4" d="M413.275 213.771H397.838V224.187H413.275V213.771Z" fill="black"/>
<path d="M458.03 213.771H442.594V224.187H458.03V213.771Z" fill="#6C63FF"/>
<path opacity="0.4" d="M371.601 245.596H356.165V256.012H371.601V245.596Z" fill="black"/>
<path opacity="0.4" d="M413.275 245.596H397.838V256.012H413.275V245.596Z" fill="black"/>
<path opacity="0.4" d="M458.03 245.596H442.594V256.012H458.03V245.596Z" fill="black"/>
<path opacity="0.4" d="M371.601 277.427H356.165V287.843H371.601V277.427Z" fill="black"/>
<path opacity="0.4" d="M413.275 277.427H397.838V287.843H413.275V277.427Z" fill="black"/>
<path opacity="0.4" d="M458.03 277.427H442.594V287.843H458.03V277.427Z" fill="black"/>
<path opacity="0.4" d="M371.601 309.258H356.165V319.674H371.601V309.258Z" fill="black"/>
<path opacity="0.4" d="M413.275 309.258H397.838V319.674H413.275V309.258Z" fill="black"/>
<path opacity="0.4" d="M458.03 309.258H442.594V319.674H458.03V309.258Z" fill="black"/>
<path opacity="0.4" d="M507.989 181.967C506.669 185.305 505.821 188.811 505.468 192.383H497V181.967H507.989Z" fill="black"/>
<path d="M512.436 213.771H497V224.187H512.436V213.771Z" fill="#6C63FF"/>
<path opacity="0.4" d="M512.436 245.596H497V256.012H512.436V245.596Z" fill="black"/>
<path opacity="0.4" d="M512.436 277.427H497V287.843H512.436V277.427Z" fill="black"/>
<path opacity="0.4" d="M512.436 309.258H497V319.674H512.436V309.258Z" fill="black"/>
<path opacity="0.4" d="M148.969 169.786H133.532V180.202H148.969V169.786Z" fill="black"/>
<path d="M148.969 193.139H133.532V203.555H148.969V193.139Z" fill="#6C63FF"/>
<path opacity="0.4" d="M148.969 216.486H133.532V226.902H148.969V216.486Z" fill="black"/>
<path opacity="0.4" d="M148.969 239.838H133.532V250.254H148.969V239.838Z" fill="black"/>
<path opacity="0.4" d="M148.969 263.185H133.532V273.601H148.969V263.185Z" fill="black"/>
<path opacity="0.4" d="M148.969 286.537H133.532V296.953H148.969V286.537Z" fill="black"/>
<path opacity="0.4" d="M148.969 309.884H133.532V320.3H148.969V309.884Z" fill="black"/>
<path opacity="0.4" d="M63.3063 230.572H47.8697V240.988H63.3063V230.572Z" fill="black"/>
<path opacity="0.4" d="M88.0049 230.572H72.5682V240.988H88.0049V230.572Z" fill="black"/>
<path opacity="0.4" d="M63.3063 257.793H47.8697V268.209H63.3063V257.793Z" fill="black"/>
<path opacity="0.4" d="M88.0049 257.793H72.5682V268.209H88.0049V257.793Z" fill="black"/>
<path opacity="0.4" d="M63.3063 285.015H47.8697V295.431H63.3063V285.015Z" fill="black"/>
<path opacity="0.4" d="M88.0049 285.015H72.5682V295.431H88.0049V285.015Z" fill="black"/>
<path opacity="0.4" d="M297.905 240.944H220.733V250.254H297.905V240.944Z" fill="black"/>
<path opacity="0.4" d="M297.905 270.649H220.733V279.959H297.905V270.649Z" fill="black"/>
<path opacity="0.4" d="M297.905 300.359H220.733V309.668H297.905V300.359Z" fill="black"/>
<path d="M112.455 0.372397V326.345C110.134 326.061 107.821 325.749 105.514 325.411V0.048584C107.83 0.0917591 110.14 0.21049 112.455 0.372397Z" fill="#3F3D56"/>
<path d="M327.758 53.6019V333.436L320.817 333.517V52.7546C323.127 53.0677 325.441 53.3501 327.758 53.6019Z" fill="#3F3D56"/>
<path d="M589.792 260.762H0.151123C0.36519 258.418 0.767699 256.095 1.35475 253.816H581.62C584.556 255.87 587.292 258.195 589.792 260.762V260.762Z" fill="#3F3D56"/>
<path d="M536.12 230.572C538.382 231.726 540.708 232.849 543.067 233.961V323.776C540.757 324.164 538.436 324.515 536.12 324.855V230.572Z" fill="#3F3D56"/>
<path d="M182.071 124.026H180.743V122.698H180.506V124.026H179.178V124.264H180.506V125.591H180.743V124.264H182.071V124.026Z" fill="#E7EFFD"/>
<path d="M458.03 96.4317H456.702V95.1041H456.46V96.4317H455.137V96.6692H456.46V97.9968H456.702V96.6692H458.03V96.4317Z" fill="#E7EFFD"/>
<path d="M213.522 91.0618H212.194V89.7341H211.951V91.0618H210.629V91.3046H211.951V92.6269H212.194V91.3046H213.522V91.0618Z" fill="#E7EFFD"/>
<path d="M211.498 176.786C211.978 176.786 212.367 176.397 212.367 175.917C212.367 175.437 211.978 175.048 211.498 175.048C211.018 175.048 210.629 175.437 210.629 175.917C210.629 176.397 211.018 176.786 211.498 176.786Z" fill="#E7EFFD"/>
<path d="M409.675 99.1571C410.155 99.1571 410.544 98.7681 410.544 98.2882C410.544 97.8083 410.155 97.4193 409.675 97.4193C409.195 97.4193 408.806 97.8083 408.806 98.2882C408.806 98.7681 409.195 99.1571 409.675 99.1571Z" fill="#E7EFFD"/>
<path d="M497 140.308C497.479 140.308 497.869 139.919 497.869 139.44C497.869 138.96 497.479 138.571 497 138.571C496.52 138.571 496.131 138.96 496.131 139.44C496.131 139.919 496.52 140.308 497 140.308Z" fill="#E7EFFD"/>
<path d="M360.24 147.762C360.72 147.762 361.109 147.373 361.109 146.893C361.109 146.413 360.72 146.024 360.24 146.024C359.76 146.024 359.371 146.413 359.371 146.893C359.371 147.373 359.76 147.762 360.24 147.762Z" fill="#E7EFFD"/>
<path d="M386.088 293.143C386.088 293.143 367.569 297.622 360.24 306.004C357.784 308.805 354.141 310.823 350.379 312.264V299.619C354.616 292.506 358.885 284.594 358.885 284.594C359.079 284.206 360.623 278.75 360.623 278.75C364.099 276.019 360.429 266.477 360.429 266.477C360.429 266.477 362.555 260.438 361.395 259.267C360.234 258.096 361.201 254.982 362.167 253.616C363.133 252.251 362.938 250.497 362.938 249.331C362.938 248.165 361.395 246.406 358.885 245.435C356.375 244.463 359.079 242.903 360.623 242.509C362.167 242.115 362.555 238.419 360.817 236.47C359.079 234.522 361.012 233.356 361.972 231.214C362.933 229.071 358.869 229.46 358.869 229.46V209.761C358.869 209.761 357.708 203.333 356.553 192.032C355.398 180.731 350.956 179.565 350.956 179.565C348.577 178.827 346.255 177.914 344.01 176.835C341.645 175.727 339.194 174.815 336.68 174.109C336.68 174.109 331.472 174.109 327.224 172.803C322.976 171.497 320.774 171.405 320.774 171.405L320.078 171.06C314.854 168.404 310.716 164.016 308.371 158.647C308.252 158.377 308.144 158.107 308.036 157.848C309.189 156.585 310.221 155.215 311.118 153.757V153.725C311.118 153.925 311.118 154.124 311.118 154.324C311.118 154.405 311.118 154.491 311.118 154.572C311.118 155.053 311.118 155.533 311.118 156.013V156.062C314.194 150.627 323.122 149.386 323.969 143.18C324.008 142.897 324.028 142.612 324.029 142.327V142.289C324.029 142.084 324.029 141.874 324.029 141.663C323.915 139.931 323.321 138.204 323.208 136.455C323.17 135.954 323.17 135.451 323.208 134.949V134.982C323.608 130.162 327.24 125.969 328.902 121.29C329.35 120.031 329.641 118.723 329.771 117.393V117.355C329.815 116.956 329.842 116.551 329.852 116.147C329.852 116.049 329.852 115.947 329.852 115.85C329.852 115.569 329.852 115.31 329.852 115.008C329.802 112.518 329.242 110.065 328.207 107.801C327.172 105.536 325.684 103.507 323.834 101.839C320.758 99.1679 316.693 97.4895 314.561 93.9977C313.568 92.3786 313.083 90.4573 311.998 88.8922C309.957 85.9347 306.212 84.7312 302.666 84.3048C299.119 83.8785 295.476 84.0188 292.087 82.9071C289.679 82.1191 287.499 80.7213 285.07 80.0197C282.424 79.3116 279.624 79.43 277.047 80.3591C274.47 81.2881 272.239 82.9832 270.653 85.2169C269.374 87.0842 268.538 89.3186 266.811 90.7757C263.275 93.7656 257.279 92.4704 254.181 95.9136C252.48 97.8079 252.286 100.388 252.491 103.021C252.491 103.054 252.491 103.086 252.491 103.118C252.491 103.318 252.529 103.523 252.551 103.728C252.551 103.825 252.551 103.923 252.551 104.014C252.551 104.106 252.551 104.219 252.588 104.322C252.696 105.266 252.831 106.205 252.95 107.112C252.95 107.252 252.982 107.387 252.999 107.528L253.096 108.375C253.096 108.58 253.128 108.785 253.15 108.99C253.171 109.195 253.187 109.53 253.204 109.757C253.22 109.983 253.204 110.156 253.241 110.361C253.587 117.553 252.063 124.712 248.816 131.139C245.896 136.865 241.556 142.143 240.8 148.539C240.683 149.587 240.654 150.643 240.714 151.696C240.714 151.82 240.714 151.944 240.714 152.068C240.714 152.192 240.746 152.446 240.763 152.635C240.779 152.824 240.806 153.072 240.833 153.288C240.833 153.412 240.865 153.536 240.881 153.66C240.919 153.946 240.962 154.232 241.011 154.524L241.043 154.707C241.81 159.068 243.548 163.342 244.471 167.746C244.817 169.37 245.048 171.017 245.161 172.674C245.159 172.684 245.159 172.695 245.161 172.706C245.194 173.246 245.221 173.758 245.237 174.287C245.237 175 245.237 175.717 245.237 176.446C243.772 177.009 242.27 177.471 240.741 177.828C238.042 178.216 230.124 185.232 230.702 187.002C231.279 188.773 227.161 201.034 227.048 201.407L220.571 246.201C220.571 246.201 217.133 249.515 218.207 251.657C219.281 253.8 217.996 257.502 217.996 257.502C217.996 257.502 212.189 260.033 213.479 261.593C214.769 263.153 214.18 266.072 213.295 268.021C212.41 269.969 210.958 273.477 213.295 274.06C215.632 274.643 213.695 282.247 213.695 282.247C213.695 282.247 221.839 281.308 221.251 286.143C221.057 287.681 226.945 291.913 229.401 293.607V316.889C226.103 315.967 222.228 314.768 219.756 313.613C214.742 311.277 186.573 306.797 180.398 320.241C174.223 333.685 188.888 351.608 192.553 353.556C192.553 353.556 196.029 356.281 196.801 357.647C197.572 359.012 202.009 359.401 202.009 359.401C202.009 359.401 206.64 361.56 207.795 362.709C208.648 363.573 215.702 365.812 224.063 367.566C224.063 367.566 217.311 383.109 228.327 381.83C239.343 380.551 244.708 375.127 252.475 375.127C255.579 375.127 261.343 374.69 267.145 374.172C268.603 374.43 270.044 374.77 271.463 375.192C274.732 376.22 278.089 376.942 281.492 377.351C281.492 377.351 290.176 382.025 294.807 380.853C295.189 380.746 295.545 380.562 295.854 380.314H295.962C296.804 380.103 297.759 379.234 298.752 377.923C304.544 378.517 311.166 379.358 313.628 380.319C318.426 382.17 352.748 379.607 352.748 379.607C352.748 379.607 374.921 380.044 381.274 381.965C387.626 383.886 385.37 362.347 373.647 359.924C370.518 359.297 367.334 358.982 364.142 358.985C364.954 358.148 365.696 357.245 366.36 356.287C370.581 355.904 373.377 355.666 373.377 355.666C373.377 355.666 384.566 350.21 390.935 346.896C395.001 344.684 398.654 341.785 401.73 338.326C401.73 338.326 407.321 334.818 409.637 333.469C411.952 332.119 413.107 327.624 413.107 327.624C430.654 287.876 386.088 293.143 386.088 293.143ZM335.849 243.287C335.849 242.634 335.849 241.975 335.849 241.322C336.475 241.765 336.383 242.461 335.849 243.281V243.287ZM336.032 257.065C336.502 257.68 336.955 258.241 337.279 258.684C338.526 260.303 336.27 261.059 336.432 263.741C336.47 264.34 336.524 265.176 336.578 266.105C336.34 262.235 336.146 259.051 336.032 257.059V257.065Z" fill="url(#paint1_linear)"/>
<path d="M235.608 318.546C235.608 318.546 224.813 316.037 219.788 313.721C214.763 311.406 186.605 306.97 180.43 320.284C174.256 333.598 188.92 351.338 192.585 353.27C196.25 355.202 231.943 328.763 231.943 328.763L260.096 340.636L265.494 322.211L235.608 318.546Z" fill="#65617D"/>
<path d="M350.201 322.211H267.399C256.42 322.211 247.52 331.11 247.52 342.088V344.964C247.52 355.942 256.42 364.841 267.399 364.841H350.201C361.179 364.841 370.079 355.942 370.079 344.964V342.088C370.079 331.11 361.179 322.211 350.201 322.211Z" fill="#65617D"/>
<path opacity="0.1" d="M370.079 343.523C370.083 347.716 368.848 351.817 366.528 355.31C365.739 356.493 364.835 357.596 363.829 358.602C361.852 360.585 359.502 362.157 356.915 363.229C354.328 364.3 351.554 364.85 348.754 364.846H268.84C263.186 364.846 257.763 362.6 253.765 358.602C249.766 354.605 247.52 349.182 247.52 343.528C247.52 337.875 249.766 332.452 253.765 328.455C257.763 324.457 263.186 322.211 268.84 322.211H348.76C354.413 322.211 359.835 324.456 363.833 328.453C367.831 332.449 370.078 337.87 370.079 343.523V343.523Z" fill="black"/>
<path d="M303.351 344.77C303.351 344.77 291.061 347.927 281.033 347.787C271.004 347.646 224.095 367.135 224.095 367.135C224.095 367.135 217.343 382.526 228.359 381.253C239.375 379.979 244.74 374.636 252.507 374.636C260.274 374.636 284.708 371.938 284.708 371.938L308.22 354.571L303.351 344.77Z" fill="#FBBEBE"/>
<path d="M311.042 199.523L288.999 203.868L287.569 204.154C287.569 204.154 270.141 199.523 269.563 199.135C268.986 198.746 253.166 177.434 253.166 177.434C253.166 177.434 261.165 177.52 267.447 173.899C267.674 173.769 267.895 173.629 268.117 173.494C270.879 171.828 272.978 169.255 274.054 166.214C274.167 165.895 274.264 165.566 274.356 165.221C275.025 162.641 275.069 159.516 274.173 155.733C272.014 146.736 276.979 144.259 283.559 144.475C293.064 144.788 306.001 150.719 306.001 150.719C306.169 153.747 306.857 156.722 308.036 159.516C308.139 159.775 308.252 160.056 308.371 160.304C310.731 165.63 314.869 169.971 320.078 172.582L320.774 172.927C321.476 173.262 322.215 173.58 322.982 173.866C339.789 180.235 311.042 199.523 311.042 199.523Z" fill="#FBBEBE"/>
<path opacity="0.1" d="M308.392 160.304C304.2 165.049 298.514 168.222 292.274 169.296C286.034 170.371 279.614 169.283 274.075 166.214C275.025 163.45 275.204 160.013 274.194 155.733C268.986 133.74 306.039 150.719 306.039 150.719C306.222 154.032 307.02 157.283 308.392 160.304V160.304Z" fill="black"/>
<path d="M315.35 140.767C315.359 145.965 313.899 151.059 311.14 155.463C310.241 156.907 309.209 158.264 308.058 159.516C303.196 164.844 296.443 168.059 289.242 168.475C288.702 168.513 288.125 168.529 287.564 168.529C282.069 168.529 276.698 166.9 272.13 163.847C267.561 160.795 264 156.457 261.898 151.381C259.795 146.305 259.245 140.72 260.317 135.332C261.389 129.943 264.035 124.994 267.92 121.109C271.805 117.224 276.755 114.579 282.144 113.507C287.533 112.435 293.119 112.985 298.195 115.088C303.271 117.19 307.61 120.75 310.662 125.319C313.715 129.887 315.344 135.257 315.344 140.751L315.35 140.767Z" fill="#FBBEBE"/>
<path opacity="0.1" d="M311.042 199.523L288.999 203.868L287.569 204.154C287.569 204.154 270.141 199.523 269.563 199.135C268.986 198.746 253.166 177.434 253.166 177.434C253.166 177.434 261.165 177.52 267.447 173.899C267.674 173.769 267.895 173.629 268.117 173.494C270.114 175.653 276.65 181.757 286.921 181.713C288.24 181.714 289.557 181.618 290.861 181.427C293.96 180.952 297.085 180.645 300.204 180.348C306.179 179.722 315.317 177.909 320.115 172.63L320.812 172.976C321.513 173.31 322.253 173.629 323.019 173.915C339.789 180.235 311.042 199.523 311.042 199.523Z" fill="black"/>
<path d="M335.93 255.851C336.119 260.098 339.212 307.936 339.212 307.936H242.938L243.591 277.816L244.131 253.724L244.303 245.818L245.075 218.428L242.285 215.968L227.118 202.605C227.231 202.249 231.344 190.057 230.772 188.341C230.2 186.625 238.107 179.663 240.811 179.274C242.348 178.917 243.859 178.458 245.334 177.898C249.884 176.279 255.956 173.947 256.626 174.314C257.57 174.822 267.037 173.942 267.42 173.904C267.42 173.904 274.405 182.933 286.884 182.879C288.197 182.872 289.509 182.768 290.807 182.566C293.906 182.091 297.031 181.784 300.15 181.46C306.428 180.807 316.186 178.837 320.758 172.933C320.758 172.933 322.965 173.024 327.208 174.314C331.45 175.604 336.664 175.61 336.664 175.61C339.176 176.308 341.628 177.211 343.994 178.308C346.241 179.375 348.562 180.277 350.94 181.006C350.94 181.006 355.377 182.161 356.537 193.349C357.698 204.537 358.869 210.905 358.869 210.905L335.93 230.771C335.93 230.771 335.741 251.587 335.93 255.851Z" fill="#6C63FF"/>
<path d="M227.123 289.225L230.497 294.627L243.132 299.08L251.816 283.245L243.812 277.843L230.982 272.829L223.653 277.071L227.123 289.225Z" fill="#FBBEBE"/>
<path d="M334.964 315.842C334.964 315.842 352.905 314.493 360.24 306.198C367.575 297.903 386.088 293.467 386.088 293.467C386.088 293.467 430.655 288.259 413.075 327.613C413.075 327.613 411.92 332.049 409.605 333.399C407.289 334.748 401.697 338.223 401.697 338.223L333.242 332.244L334.964 315.842Z" fill="#65617D"/>
<path opacity="0.1" d="M370.079 343.523C370.083 347.716 368.848 351.817 366.528 355.31C355.01 356.33 329.502 358.726 324.164 360.216C317.606 362.034 304.333 358.867 302.881 358.51L302.747 358.478C302.747 358.478 300.188 350.717 298.968 345.752C298.429 343.496 298.143 341.818 298.499 341.694C299.659 341.31 310.271 338.412 310.076 340.075C309.882 341.737 341.921 327.629 341.921 327.629L342.903 339.977C346.158 343.701 370.079 338.164 370.079 343.523Z" fill="black"/>
<path d="M403.068 333.204L401.719 338.223C398.637 341.653 394.985 344.523 390.924 346.707C384.555 349.989 373.366 355.391 373.366 355.391C373.366 355.391 332.276 358.861 325.329 360.788C318.383 362.714 303.912 359.05 303.912 359.05C303.912 359.05 298.515 342.654 299.67 342.266C300.825 341.877 311.436 338.99 311.247 340.647C311.059 342.303 343.092 328.201 343.092 328.201L403.068 333.204Z" fill="#65617D"/>
<path d="M288.659 376.455C288.659 376.455 308.856 377.864 313.66 379.693C318.464 381.523 352.781 378.991 352.781 378.991C352.781 378.991 374.953 379.423 381.306 381.323C387.659 383.223 385.403 361.894 373.679 359.503C361.956 357.112 345.435 360.631 345.435 360.631C345.435 360.631 326.792 358.23 324.531 357.933C322.269 357.636 307.378 358.068 307.378 358.068L288.659 376.455Z" fill="#FBBEBE"/>
<path opacity="0.1" d="M209.29 323.215C209.29 323.215 235.986 325.616 243.326 329.993L209.29 323.215Z" fill="black"/>
<path opacity="0.1" d="M375.801 305.707C375.801 305.707 354.896 310.791 346.703 318.271L375.801 305.707Z" fill="black"/>
<path opacity="0.1" d="M210.845 317.143C211.271 317.283 223.135 318.838 222.849 319.966C222.563 321.094 210.845 317.143 210.845 317.143Z" fill="black"/>
<path opacity="0.1" d="M192.202 346.902L193.746 352.692C193.746 352.692 197.216 355.391 197.988 356.74C198.76 358.089 203.197 358.478 203.197 358.478C203.197 358.478 207.828 360.599 208.988 361.754C210.148 362.909 222.681 366.579 234.453 368.122C246.225 369.666 268.02 372.558 272.651 374.102C275.923 375.117 279.282 375.827 282.684 376.223C282.684 376.223 291.363 380.853 295.994 379.698C300.625 378.544 308.533 357.512 308.533 357.512C308.533 357.512 278.053 350.377 277.087 348.062C276.121 345.747 246.797 334.947 246.797 334.947L229.433 335.358L192.202 346.902Z" fill="black"/>
<path d="M191.042 347.479L192.585 353.27C192.585 353.27 196.061 355.968 196.833 357.318C197.605 358.667 202.042 359.055 202.042 359.055C202.042 359.055 206.672 361.176 207.828 362.337C208.983 363.497 221.526 367.156 233.293 368.7C245.059 370.243 266.864 373.136 271.495 374.679C274.766 375.691 278.123 376.399 281.524 376.795C281.524 376.795 290.208 381.42 294.839 380.265C299.47 379.11 307.377 358.079 307.377 358.079C307.377 358.079 276.893 350.944 275.932 348.629C274.971 346.313 231.943 328.763 231.943 328.763L218.45 325.676L191.042 347.479Z" fill="#65617D"/>
<path d="M230.491 200.678L227.118 202.61L220.641 246.978C220.641 246.978 217.203 250.259 218.277 252.375C219.351 254.491 218.066 258.16 218.066 258.16C218.066 258.16 212.259 260.67 213.549 262.214C214.839 263.757 214.25 266.65 213.365 268.576C212.48 270.503 211.028 273.973 213.365 274.556C215.702 275.139 213.765 282.652 213.765 282.652C213.765 282.652 221.909 281.723 221.321 286.505C221.078 288.437 230.529 294.6 230.529 294.6C230.529 294.6 219.788 275.117 243.85 277.816L245.917 266.833C245.917 266.833 247.984 260.648 245.917 258.738C243.85 256.827 246.381 247.647 246.381 247.647L246.835 207.813L230.491 200.678Z" fill="#6C63FF"/>
<path opacity="0.1" d="M225.25 257.977C225.677 258.684 238.668 260.136 239.516 262.44C240.363 264.745 225.25 257.977 225.25 257.977Z" fill="black"/>
<path opacity="0.1" d="M221.154 268.992C221.154 268.992 222.919 263.482 227.091 264.469C231.263 265.457 221.154 268.992 221.154 268.992Z" fill="black"/>
<path opacity="0.1" d="M218.898 277.039C218.898 277.039 222.001 269.694 226.238 270.26C230.475 270.827 218.898 277.039 218.898 277.039Z" fill="black"/>
<path d="M360.24 276.877L358.885 284.972C358.885 284.972 344.998 310.44 342.488 310.823C339.978 311.207 326.295 293.85 326.295 293.85L322.631 276.871L337.058 274.135L343.465 267.805C343.465 267.805 359.657 269.354 360.24 276.877Z" fill="#FBBEBE"/>
<path d="M353.677 207.241L358.885 210.905V230.388C358.885 230.388 362.939 229.999 361.972 232.126C361.006 234.252 359.079 235.402 360.817 237.334C362.555 239.266 362.167 242.925 360.623 243.314C359.079 243.702 356.381 245.24 358.885 246.206C361.39 247.172 362.939 248.905 362.939 250.065C362.939 251.225 363.133 252.958 362.167 254.307C361.201 255.656 360.24 258.743 361.395 259.904C362.55 261.064 360.429 267.038 360.429 267.038C360.429 267.038 364.099 276.494 360.623 279.192C360.623 279.192 359.079 284.589 358.885 284.978C358.885 284.978 361.319 266.202 337.047 274.141C337.047 274.141 336.599 266.984 336.432 264.334C336.265 261.685 338.526 260.907 337.279 259.326C336.032 257.745 332.913 254.113 334.386 253.152C335.86 252.192 335.352 250.454 334.769 249.099C334.187 247.744 332.152 247.75 333.998 246.109C335.844 244.469 336.939 242.93 335.854 242.159C334.769 241.387 332.886 238.872 334.386 237.717C335.887 236.562 335.93 219.778 335.93 219.778C335.93 219.778 342.105 195.087 353.677 207.241Z" fill="#6C63FF"/>
<path opacity="0.1" d="M351.226 240.432C351.226 240.432 358.642 238.419 358.885 240.432C359.128 242.445 351.226 240.432 351.226 240.432Z" fill="black"/>
<path opacity="0.1" d="M342.893 245.974C342.893 245.974 353.061 243.432 354.33 245.408C355.598 247.383 342.893 245.974 342.893 245.974Z" fill="black"/>
<path opacity="0.1" d="M340.631 251.339C340.631 251.339 355.884 249.218 356.872 252.326C357.86 255.435 340.631 251.339 340.631 251.339Z" fill="black"/>
<path opacity="0.1" d="M342.893 257.977C343.459 258.117 357.579 259.105 357.86 261.787C358.14 264.469 342.893 257.977 342.893 257.977Z" fill="black"/>
<path d="M344.733 266.671H235.09C231.969 266.671 229.439 269.201 229.439 272.322V329.707C229.439 332.828 231.969 335.358 235.09 335.358H344.733C347.854 335.358 350.384 332.828 350.384 329.707V272.322C350.384 269.201 347.854 266.671 344.733 266.671Z" fill="#3F3D56"/>
<path d="M289.912 305.475C292.374 305.475 294.37 303.479 294.37 301.017C294.37 298.555 292.374 296.559 289.912 296.559C287.449 296.559 285.453 298.555 285.453 301.017C285.453 303.479 287.449 305.475 289.912 305.475Z" fill="#E7EFFD"/>
<path opacity="0.1" d="M249.69 224.57C249.69 224.57 261.284 233.432 270.249 226.68C270.249 226.68 255.093 228.057 249.69 224.57Z" fill="black"/>
<path opacity="0.1" d="M308.392 226.956C308.392 226.956 319.98 235.812 328.946 229.06C328.946 229.06 313.795 230.442 308.392 226.956Z" fill="black"/>
<path opacity="0.1" d="M315.35 140.767C315.359 145.964 313.899 151.059 311.14 155.463C310.907 147.729 309.089 139.99 304.879 133.53C301.025 127.593 289.307 117.237 281.254 120.124C280.412 120.433 279.654 120.936 279.043 121.592C278.431 122.249 277.983 123.04 277.735 123.902C276.936 126.935 279.273 128.219 280.774 130.61C283.318 134.753 284.312 139.663 283.58 144.469C283.478 145.116 283.343 145.758 283.176 146.391C281.907 151.151 279.003 156.596 281.999 160.498C284.088 163.197 288.578 164.157 289.188 167.514C289.244 167.831 289.262 168.154 289.242 168.475C289.102 170.747 287.164 172.749 286.317 174.978C285.324 177.606 285.885 180.218 286.916 182.858C288.255 186.301 290.392 189.782 290.91 193.419C291.428 197.057 290.311 200.435 288.994 203.851C287.747 207.09 286.295 210.301 285.809 213.674C284.876 220.085 287.229 227.501 283.192 232.563C282.781 233.175 282.148 233.603 281.427 233.756C278.841 234.025 279.268 229.379 277.201 227.819C277.422 230.518 277.632 233.335 276.661 235.86C275.689 238.386 273.131 240.534 270.454 240.108L269.531 234.047C267.709 235.84 265.517 237.213 263.108 238.068C264.056 231.623 266.339 225.447 269.812 219.934C263.016 223.205 259.054 230.285 255.519 236.945C253.317 241.106 251.034 245.65 251.806 250.297C252.119 252.191 252.934 253.994 253.112 255.899C253.29 257.804 252.599 260.033 250.823 260.756C249.274 261.388 247.466 260.632 246.349 259.369L246.155 259.137C246.047 258.997 245.944 258.851 245.847 258.705C245.654 258.412 245.483 258.106 245.334 257.788C244.852 256.647 244.49 255.459 244.255 254.242L244.136 253.703C242.339 245.818 240.719 237.685 242.036 229.708C242.522 226.772 243.407 223.858 243.299 220.879C243.218 219.199 242.876 217.542 242.285 215.967C240.709 211.553 237.675 207.5 235.948 203.053C235.929 203.023 235.915 202.99 235.905 202.956C234.998 200.603 234.55 197.661 236.229 195.772C237.092 194.795 238.388 194.304 239.467 193.614C242.824 191.428 244.325 187.278 244.946 183.316C245.225 181.531 245.366 179.727 245.367 177.919C249.917 176.3 255.989 173.969 256.658 174.336C257.603 174.843 267.07 173.963 267.453 173.926C270.335 172.263 272.85 169.819 274.081 166.241C274.194 165.922 274.291 165.593 274.383 165.247C270.062 162.916 266.436 159.481 263.874 155.293C261.312 151.104 259.907 146.312 259.8 141.403C259.694 136.495 260.891 131.645 263.268 127.35C265.646 123.054 269.12 119.465 273.336 116.949C277.552 114.433 282.36 113.079 287.27 113.025C292.18 112.971 297.016 114.219 301.287 116.643C305.557 119.066 309.109 122.578 311.58 126.82C314.051 131.063 315.354 135.884 315.355 140.794L315.35 140.767Z" fill="black"/>
<path d="M283.175 145.236C281.902 149.996 279.003 155.441 282.004 159.349C284.093 162.047 288.584 163.002 289.183 166.365C289.663 169.063 287.283 171.287 286.322 173.823C284.034 179.884 290.003 185.842 290.91 192.259C291.898 199.221 286.824 205.562 285.815 212.519C284.881 218.93 287.234 226.34 283.197 231.408C282.789 232.023 282.155 232.452 281.432 232.601C278.847 232.876 279.273 228.229 277.206 226.664C277.427 229.363 277.638 232.18 276.666 234.706C275.695 237.231 273.136 239.374 270.459 238.953L269.536 232.887C267.715 234.68 265.523 236.053 263.113 236.907C264.062 230.465 266.343 224.291 269.811 218.779C263.016 222.05 259.06 229.131 255.525 235.785C253.317 239.946 251.039 244.495 251.806 249.142C252.119 251.037 252.934 252.834 253.112 254.744C253.29 256.655 252.599 258.873 250.823 259.601C249.204 260.276 247.245 259.38 246.155 257.982C245.064 256.585 244.643 254.804 244.249 253.082C242.403 245.03 240.682 236.719 242.026 228.569C242.511 225.628 243.397 222.714 243.289 219.74C243.056 213.226 238.247 207.867 235.905 201.806C234.993 199.448 234.55 196.512 236.229 194.623C237.092 193.646 238.388 193.155 239.467 192.464C242.819 190.273 244.325 186.128 244.94 182.167C245.603 177.885 245.481 173.517 244.579 169.279C243.224 162.938 240.115 156.742 240.887 150.304C241.642 143.968 245.982 138.743 248.902 133.071C252.658 125.73 254.1 117.422 253.036 109.244C252.534 105.439 251.655 101.035 254.235 98.1911C257.333 94.7803 263.329 96.0647 266.864 93.1072C268.592 91.6663 269.428 89.4481 270.707 87.6024C272.306 85.385 274.54 83.7054 277.115 82.786C279.689 81.8666 282.482 81.7507 285.124 82.4538C287.553 83.15 289.733 84.5316 292.141 85.3141C295.53 86.3935 299.157 86.2748 302.72 86.7011C306.282 87.1275 310.011 88.3202 312.052 91.2399C313.131 92.7942 313.622 94.6885 314.615 96.2968C316.747 99.7508 320.812 101.413 323.888 104.063C326.526 106.415 328.414 109.492 329.314 112.91C330.214 116.328 330.088 119.935 328.951 123.281C327.116 128.392 322.868 132.915 323.23 138.333C323.375 140.562 324.309 142.748 324.018 144.955C323.165 151.102 314.243 152.327 311.161 157.713C311.409 148.884 309.715 139.79 304.895 132.391C301.041 126.455 289.323 116.093 281.27 118.98C280.429 119.29 279.672 119.794 279.061 120.45C278.449 121.106 278.001 121.897 277.751 122.758C276.952 125.785 279.289 127.075 280.79 129.466C282.226 131.8 283.178 134.399 283.588 137.108C283.998 139.818 283.857 142.582 283.175 145.236Z" fill="#3F3D56"/>
<g opacity="0.2">
<path opacity="0.2" d="M245.334 175.826C245.402 173.052 245.143 170.281 244.562 167.568C243.413 162.171 241.005 156.888 240.784 151.469C240.471 157.503 243.294 163.342 244.562 169.279C245.023 171.432 245.281 173.624 245.334 175.826V175.826Z" fill="black"/>
<path opacity="0.2" d="M268.327 219.621C268.797 218.763 269.283 217.91 269.806 217.079C263.016 220.35 259.054 227.431 255.519 234.09C253.474 237.938 251.374 242.126 251.687 246.411C251.946 242.736 253.754 239.153 255.519 235.823C258.79 229.665 262.428 223.156 268.327 219.621Z" fill="black"/>
<path opacity="0.2" d="M253.08 254.523C252.874 255.98 252.151 257.362 250.823 257.907C249.204 258.576 247.245 257.686 246.16 256.288C245.075 254.89 244.643 253.114 244.249 251.387C242.932 245.634 241.68 239.741 241.551 233.875C241.421 240.313 242.792 246.8 244.249 253.125C244.643 254.847 245.07 256.633 246.16 258.026C247.25 259.418 249.188 260.314 250.823 259.645C252.599 258.916 253.295 256.698 253.117 254.787C253.08 254.696 253.08 254.609 253.08 254.523Z" fill="black"/>
<path opacity="0.2" d="M283.802 139.44C283.739 140.825 283.529 142.2 283.175 143.541C282.236 147.065 280.401 150.973 280.73 154.335C280.99 151.399 282.393 148.204 283.175 145.263C283.676 143.364 283.887 141.401 283.802 139.44Z" fill="black"/>
<path opacity="0.2" d="M253.355 113.686C253.4 111.627 253.288 109.569 253.02 107.528C252.821 106.027 252.567 104.43 252.48 102.87C252.356 104.948 252.734 107.188 253.02 109.266C253.213 110.732 253.324 112.207 253.355 113.686V113.686Z" fill="black"/>
<path opacity="0.2" d="M289.188 166.419C289.188 166.37 289.188 166.332 289.15 166.284C288.74 168.291 287.089 170.126 286.328 172.145C285.876 173.35 285.713 174.644 285.853 175.923C285.918 175.224 286.078 174.538 286.328 173.883C287.283 171.341 289.663 169.096 289.188 166.419Z" fill="black"/>
<path opacity="0.2" d="M243.289 218.045C243.051 211.531 238.247 206.172 235.9 200.111C235.525 199.157 235.271 198.16 235.144 197.143C235.014 198.75 235.273 200.364 235.9 201.849C238.21 207.829 242.884 213.091 243.262 219.459C243.289 218.99 243.305 218.515 243.289 218.045Z" fill="black"/>
<path opacity="0.2" d="M304.895 130.697C301.036 124.76 289.323 114.398 281.27 117.285C280.428 117.595 279.67 118.099 279.058 118.755C278.446 119.411 277.996 120.202 277.746 121.063C277.556 121.724 277.535 122.422 277.686 123.092C277.686 122.995 277.719 122.898 277.746 122.801C277.996 121.939 278.445 121.148 279.057 120.492C279.669 119.835 280.428 119.332 281.27 119.023C289.323 116.136 301.036 126.514 304.895 132.434C309.256 139.137 311.053 147.227 311.172 155.253C311.285 146.644 309.564 137.864 304.895 130.697Z" fill="black"/>
<path opacity="0.2" d="M324.002 143.244C323.154 149.375 314.286 150.611 311.172 155.965C311.172 156.553 311.172 157.147 311.172 157.735C314.248 152.338 323.176 151.124 324.023 144.977C324.099 144.373 324.099 143.762 324.023 143.158C324.019 143.187 324.012 143.216 324.002 143.244V143.244Z" fill="black"/>
<path opacity="0.2" d="M328.935 121.565C327.1 126.681 322.852 131.199 323.214 136.622C323.214 136.698 323.214 136.779 323.214 136.86C323.613 132.084 327.245 127.939 328.908 123.303C329.656 121.185 329.977 118.94 329.852 116.697C329.793 118.357 329.484 119.998 328.935 121.565V121.565Z" fill="black"/>
<path opacity="0.2" d="M283.197 229.724C282.789 230.34 282.155 230.771 281.432 230.922C278.847 231.198 279.273 226.551 277.206 224.986C277.26 225.601 277.309 226.222 277.341 226.842C279.262 228.505 278.906 232.925 281.432 232.655C281.79 232.582 282.131 232.439 282.433 232.234C282.736 232.03 282.996 231.767 283.197 231.462C285.502 228.569 285.723 224.916 285.664 221.122C285.604 224.284 285.146 227.301 283.197 229.724Z" fill="black"/>
<path opacity="0.2" d="M276.661 233.027C275.678 235.558 273.131 237.701 270.448 237.275C270.143 235.256 269.837 233.234 269.531 231.208C267.789 232.918 265.71 234.247 263.426 235.11C263.308 235.726 263.194 236.346 263.103 236.967C265.513 236.113 267.708 234.74 269.531 232.946C269.837 234.972 270.143 236.994 270.448 239.012C273.147 239.433 275.678 237.296 276.661 234.765C277.264 233.002 277.505 231.135 277.368 229.276C277.34 230.557 277.101 231.824 276.661 233.027V233.027Z" fill="black"/>
<path opacity="0.2" d="M285.815 210.835C285.607 212.465 285.529 214.109 285.583 215.752C285.591 214.688 285.669 213.626 285.815 212.573C286.781 205.94 291.428 199.869 291.007 193.29C290.635 199.237 286.695 204.791 285.815 210.835Z" fill="black"/>
</g>
<path d="M446.307 302.858C446.307 302.858 442.642 319.928 458.953 321.952L459.963 320.057C459.963 320.057 447.333 308.184 446.307 302.858Z" fill="#6C63FF"/>
<path d="M465.166 319.944L461.387 320.748L461.01 320.829C461.01 320.829 450.89 312.615 451.019 294.276C452.373 296.978 453.991 299.54 455.85 301.924C459.849 307.229 464.41 314.315 465.166 319.944Z" fill="#6C63FF"/>
<path d="M466.45 321.703C466.151 321.897 465.813 322.021 465.46 322.066C465.107 322.112 464.748 322.078 464.41 321.968C454.695 319.69 457.96 287.967 457.96 287.967C458.5 288.221 459.088 292.285 461.328 297.466C465.257 306.635 469.575 319.404 466.45 321.703Z" fill="#6C63FF"/>
<path d="M488.051 302.858C488.051 302.858 488.682 319.928 472.371 321.952L471.362 320.057C471.362 320.057 487.041 308.184 488.051 302.858Z" fill="#6C63FF"/>
<path d="M483.377 294.276C483.495 312.626 470.347 320.829 470.347 320.829L469.969 320.748L466.191 319.944C466.941 314.315 471.513 307.229 475.518 301.924C477.783 299.035 480.426 296.462 483.377 294.276V294.276Z" fill="#6C63FF"/>
<path d="M469.91 320.041C469.326 320.753 468.588 321.321 467.751 321.703C467.496 321.818 467.23 321.907 466.958 321.968C464.561 322.508 463.719 320.802 463.859 317.866C464.086 312.637 467.373 303.57 470.336 296.818C472.463 291.929 475.933 288.227 476.452 287.984C476.419 287.957 476.274 312.669 469.91 320.041Z" fill="#6C63FF"/>
<path d="M467.19 276.828C467.19 276.828 456.314 315.395 465.673 321.212C475.032 327.03 469.591 280.245 467.19 276.828Z" fill="#6C63FF"/>
<path opacity="0.1" d="M446.307 302.858C446.307 302.858 442.642 319.928 458.953 321.952L459.963 320.057C459.963 320.057 447.333 308.184 446.307 302.858Z" fill="black"/>
<path opacity="0.1" d="M465.166 319.944L461.387 320.748L461.01 320.829C461.01 320.829 450.89 312.615 451.019 294.276C452.373 296.978 453.991 299.54 455.85 301.924C459.849 307.229 464.41 314.315 465.166 319.944Z" fill="black"/>
<path opacity="0.1" d="M466.45 321.703C466.151 321.897 465.813 322.021 465.46 322.066C465.107 322.112 464.748 322.078 464.41 321.968C454.695 319.69 457.96 287.967 457.96 287.967C458.5 288.221 459.088 292.285 461.328 297.466C465.257 306.635 469.575 319.404 466.45 321.703Z" fill="black"/>
<path opacity="0.1" d="M488.051 302.858C488.051 302.858 488.682 319.928 472.371 321.952L471.362 320.057C471.362 320.057 487.041 308.184 488.051 302.858Z" fill="black"/>
<path opacity="0.1" d="M483.377 294.276C483.495 312.626 470.347 320.829 470.347 320.829L469.969 320.748L466.191 319.944C466.941 314.315 471.513 307.229 475.518 301.924C477.783 299.035 480.426 296.462 483.377 294.276V294.276Z" fill="black"/>
<path opacity="0.1" d="M469.91 320.041C469.326 320.753 468.588 321.321 467.751 321.703C467.496 321.818 467.23 321.907 466.958 321.968C464.561 322.508 463.719 320.802 463.859 317.866C464.086 312.637 467.373 303.57 470.336 296.818C472.463 291.929 475.933 288.227 476.452 287.984C476.419 287.957 476.274 312.669 469.91 320.041Z" fill="black"/>
<path opacity="0.1" d="M467.19 276.828C467.19 276.828 456.314 315.395 465.673 321.212C475.032 327.03 469.591 280.245 467.19 276.828Z" fill="black"/>
<path d="M446.307 302.858C446.307 302.858 444.148 319.928 460.47 321.952L461.479 320.057C461.479 320.057 447.333 308.184 446.307 302.858Z" fill="#6C63FF"/>
<path d="M466.682 319.944L462.904 320.748L462.521 320.829C462.521 320.829 450.884 312.615 451.014 294.276C451.014 294.276 453.993 297.471 457.361 301.924C461.366 307.229 465.927 314.315 466.682 319.944Z" fill="#6C63FF"/>
<path opacity="0.1" d="M466.682 319.944L462.904 320.748C459.304 317.591 457.879 309.35 457.361 301.924C461.366 307.229 465.927 314.315 466.682 319.944Z" fill="black"/>
<path d="M467.967 321.703C467.668 321.897 467.33 322.021 466.977 322.066C466.624 322.112 466.265 322.078 465.927 321.968C456.184 319.69 457.96 287.967 457.96 287.967C458.5 288.221 460.605 292.285 462.818 297.466C466.774 306.635 471.092 319.404 467.967 321.703Z" fill="#6C63FF"/>
<path d="M488.051 302.858C488.051 302.858 490.21 319.928 473.888 321.952L472.879 320.057C472.879 320.057 487.041 308.184 488.051 302.858Z" fill="#6C63FF"/>
<path d="M483.376 294.276C483.495 312.626 471.864 320.829 471.864 320.829L471.486 320.748L467.708 319.944C468.463 314.315 473.03 307.229 477.034 301.924C480.392 297.461 483.376 294.276 483.376 294.276Z" fill="#6C63FF"/>
<path opacity="0.1" d="M477.018 301.924C476.533 308.853 475.264 316.495 472.188 320.041C471.973 320.295 471.738 320.532 471.486 320.748L467.708 319.944C468.436 314.315 473.013 307.229 477.018 301.924Z" fill="black"/>
<path d="M471.427 320.041C470.843 320.753 470.105 321.321 469.268 321.703C469.011 321.818 468.743 321.907 468.469 321.968C466.072 322.508 465.23 320.802 465.371 317.866C465.603 312.637 468.884 303.57 471.848 296.818C473.974 291.929 475.928 288.227 476.446 287.984C476.419 287.957 477.79 312.669 471.427 320.041Z" fill="#6C63FF"/>
<path opacity="0.1" d="M467.967 321.703C467.416 321.701 466.879 321.529 466.429 321.212C461.846 318.357 461.755 307.645 462.845 297.466C466.774 306.635 471.092 319.404 467.967 321.703Z" fill="black"/>
<path opacity="0.1" d="M471.427 320.041C470.887 321.18 470.191 321.784 469.268 321.703C468.801 321.641 468.354 321.473 467.961 321.212C466.771 320.393 465.866 319.224 465.371 317.866C465.603 312.637 468.884 303.57 471.848 296.818C472.873 306.204 473.224 316.182 471.427 320.041Z" fill="black"/>
<path d="M467.19 276.828C467.19 276.828 457.831 315.395 467.19 321.212C476.549 327.03 469.592 280.245 467.19 276.828Z" fill="#6C63FF"/>
<path d="M485.147 319.313H446.199V325.762H452.142L452.287 326.523L454.668 339.038H477.31L479.69 326.523L479.836 325.762H485.147V319.313Z" fill="#D4DFEC"/>
<path opacity="0.1" d="M485.131 319.313H446.183V325.762H452.125L452.271 326.523L454.651 339.038H477.294L479.674 326.523L479.82 325.762H485.131V319.313Z" fill="black"/>
<path d="M481.86 323.107L481.207 326.523L478.826 339.038H456.184L453.804 326.523L453.151 323.107H481.86Z" fill="#D4DFEC"/>
<path opacity="0.1" d="M481.86 323.107L481.207 326.523H453.804L453.151 323.107H481.86Z" fill="black"/>
<path d="M486.663 319.313H447.716V325.762H486.663V319.313Z" fill="#D4DFEC"/>
<path d="M154.161 278.032C153.607 278.793 153.164 279.629 152.844 280.514C152.763 280.73 152.682 280.979 152.601 281.216C152.456 281.145 152.301 281.092 152.142 281.059C151.469 280.888 150.773 280.828 150.081 280.881C150.081 280.612 150.108 280.342 150.118 280.034C150.205 276.979 149.843 272.732 146.934 274.529C144.143 276.267 146.135 279.149 147.938 281.006C148.094 281.167 148.245 281.313 148.397 281.459C146.777 282.641 146.443 285.355 146.167 288.2C145.892 291.044 143.469 294.136 141.882 295.917C141.725 296.095 141.574 296.257 141.429 296.408C140.783 295.889 140.034 295.513 139.232 295.307C138.429 295.1 137.592 295.067 136.776 295.21L136.56 294.422C135.265 289.743 132.571 281.637 129.139 279.851L129.592 279.279C131.049 277.368 132.69 274.535 130.267 273.811C127.843 273.088 127.622 276.267 127.757 278.669C127.757 278.965 127.8 279.252 127.827 279.516C127.342 279.539 126.866 279.66 126.429 279.872C125.992 280.085 125.602 280.384 125.285 280.752C125.172 280.612 125.047 280.466 124.912 280.309C122.948 277.983 119.337 274.308 118.247 277.071C117.232 279.662 120.406 283.008 122.64 284.983L122.78 285.102C121.28 291.189 127.822 296.144 131.352 298.313C131.508 298.416 131.659 298.508 131.805 298.594C126.947 304.32 123.941 315.06 123.941 315.06L137.575 317.537C137.575 317.537 146.605 309.749 145.45 302.426H145.541C154.56 300.618 156.611 291.001 155.208 285.291L155.365 285.226C157.007 284.553 158.446 283.465 159.542 282.069C162.047 278.572 156.752 274.605 154.161 278.032Z" fill="#6C63FF"/>
<path opacity="0.1" d="M154.161 278.032C153.607 278.793 153.164 279.629 152.844 280.514C152.763 280.73 152.682 280.979 152.601 281.216C152.456 281.145 152.301 281.092 152.142 281.059C151.469 280.888 150.773 280.828 150.081 280.881C150.081 280.612 150.108 280.342 150.118 280.034C150.205 276.979 149.843 272.732 146.934 274.529C144.143 276.267 146.135 279.149 147.938 281.006C148.094 281.167 148.245 281.313 148.397 281.459C146.777 282.641 146.443 285.355 146.167 288.2C145.892 291.044 143.469 294.136 141.882 295.917C141.725 296.095 141.574 296.257 141.429 296.408C140.783 295.889 140.034 295.513 139.232 295.307C138.429 295.1 137.592 295.067 136.776 295.21L136.56 294.422C135.265 289.743 132.571 281.637 129.139 279.851L129.592 279.279C131.049 277.368 132.69 274.535 130.267 273.811C127.843 273.088 127.622 276.267 127.757 278.669C127.757 278.965 127.8 279.252 127.827 279.516C127.342 279.539 126.866 279.66 126.429 279.872C125.992 280.085 125.602 280.384 125.285 280.752C125.172 280.612 125.047 280.466 124.912 280.309C122.948 277.983 119.337 274.308 118.247 277.071C117.232 279.662 120.406 283.008 122.64 284.983L122.78 285.102C121.28 291.189 127.822 296.144 131.352 298.313C131.508 298.416 131.659 298.508 131.805 298.594C126.947 304.32 123.941 315.06 123.941 315.06L137.575 317.537C137.575 317.537 146.605 309.749 145.45 302.426H145.541C154.56 300.618 156.611 291.001 155.208 285.291L155.365 285.226C157.007 284.553 158.446 283.465 159.542 282.069C162.047 278.572 156.752 274.605 154.161 278.032Z" fill="black"/>
<path d="M127.066 281.972L125.474 286.634C125.474 286.634 124.589 286.008 123.471 285.015C121.237 283.062 118.074 279.694 119.078 277.104C120.157 274.319 123.779 277.994 125.749 280.342C126.537 281.27 127.066 281.972 127.066 281.972Z" fill="#6C63FF"/>
<path d="M130.423 279.316C129.939 279.951 129.422 280.56 128.874 281.14C128.737 280.329 128.641 279.511 128.588 278.69C128.458 276.305 128.707 273.137 131.098 273.833C133.489 274.529 131.88 277.406 130.423 279.316Z" fill="#6C63FF"/>
<path d="M150.955 280.05C150.901 281.583 150.755 282.808 150.755 282.808C150.055 282.26 149.391 281.667 148.769 281.032C146.966 279.165 144.991 276.283 147.771 274.556C150.68 272.748 151.036 276.996 150.955 280.05Z" fill="#6C63FF"/>
<path d="M160.357 282.058C159.261 283.454 157.822 284.542 156.18 285.215C155.724 285.415 155.255 285.584 154.776 285.722L152.903 283.089C153.102 282.219 153.361 281.364 153.681 280.531C153.998 279.644 154.441 278.808 154.998 278.048C157.588 274.605 162.878 278.572 160.357 282.058Z" fill="#6C63FF"/>
<path opacity="0.1" d="M125.749 280.331C126.537 281.259 127.066 281.95 127.066 281.95L125.474 286.613C125.474 286.613 124.589 285.987 123.471 284.994C123.72 283.501 124.336 282.093 125.263 280.898C125.425 280.703 125.587 280.514 125.749 280.331Z" fill="black"/>
<path opacity="0.1" d="M130.423 279.316C129.939 279.951 129.422 280.56 128.874 281.14C128.737 280.329 128.641 279.511 128.588 278.69C129.25 278.702 129.892 278.921 130.423 279.316V279.316Z" fill="black"/>
<path d="M138.249 297.806L134.293 299.549C133.57 299.188 132.865 298.79 132.183 298.357C128.021 295.798 119.655 289.36 125.263 281.766C130.871 274.173 135.551 287.789 137.391 294.449C137.953 296.441 138.249 297.806 138.249 297.806Z" fill="#6C63FF"/>
<path opacity="0.1" d="M148.769 281.033C149.345 280.438 150.128 280.086 150.955 280.05C150.901 281.583 150.755 282.808 150.755 282.808C150.055 282.26 149.391 281.667 148.769 281.033V281.033Z" fill="black"/>
<path opacity="0.1" d="M156.18 285.215C155.724 285.415 155.255 285.584 154.776 285.722L152.903 283.089C153.102 282.219 153.361 281.364 153.681 280.531C154.89 281.238 155.78 282.997 156.18 285.215Z" fill="black"/>
<path d="M146.351 302.415C146.135 302.458 145.908 302.501 145.687 302.534C132.415 304.552 141.31 297.39 141.31 297.39C141.31 297.39 141.909 296.851 142.719 295.944C144.338 294.174 146.729 291.087 147.004 288.227C147.42 283.909 147.9 279.888 152.979 281.076C157.961 282.241 158.911 299.9 146.351 302.415Z" fill="#6C63FF"/>
<path d="M146.108 335.455H120.751V342.12H146.108V335.455Z" fill="#D4DFEC"/>
<path d="M149.848 313.786H116.719V337.052H149.848V313.786Z" fill="#D4DFEC"/>
<path opacity="0.1" d="M146.108 335.455H120.751V342.12H146.108V335.455Z" fill="black"/>
<path opacity="0.1" d="M149.848 313.786H116.719V337.052H149.848V313.786Z" fill="black"/>
<path d="M147.771 335.455H122.413V342.12H147.771V335.455Z" fill="#D4DFEC"/>
<path opacity="0.1" d="M137.391 294.449C137.931 296.441 138.249 297.806 138.249 297.806L134.293 299.549C133.57 299.188 132.865 298.79 132.183 298.357C133.732 296.381 135.481 294.908 137.391 294.449Z" fill="black"/>
<path opacity="0.1" d="M146.351 302.415C146.135 302.458 145.908 302.501 145.687 302.534C132.415 304.552 141.31 297.39 141.31 297.39C141.31 297.39 141.909 296.851 142.719 295.944C145.196 297.925 146.211 300.159 146.351 302.415Z" fill="black"/>
<path d="M124.778 315.103C124.778 315.103 132.21 288.507 142.627 296.7C153.044 304.892 138.39 317.537 138.39 317.537L124.778 315.103Z" fill="#6C63FF"/>
<path opacity="0.1" d="M128.529 286.769C128.988 286.769 129.36 286.397 129.36 285.938C129.36 285.479 128.988 285.107 128.529 285.107C128.07 285.107 127.698 285.479 127.698 285.938C127.698 286.397 128.07 286.769 128.529 286.769Z" fill="black"/>
<path opacity="0.1" d="M128.459 290.655C128.918 290.655 129.29 290.283 129.29 289.824C129.29 289.365 128.918 288.993 128.459 288.993C127.999 288.993 127.627 289.365 127.627 289.824C127.627 290.283 127.999 290.655 128.459 290.655Z" fill="black"/>
<path opacity="0.1" d="M152.628 287.53C153.087 287.53 153.459 287.158 153.459 286.699C153.459 286.24 153.087 285.868 152.628 285.868C152.169 285.868 151.797 286.24 151.797 286.699C151.797 287.158 152.169 287.53 152.628 287.53Z" fill="black"/>
<path opacity="0.1" d="M133.181 307.461C133.64 307.461 134.013 307.089 134.013 306.63C134.013 306.171 133.64 305.799 133.181 305.799C132.722 305.799 132.35 306.171 132.35 306.63C132.35 307.089 132.722 307.461 133.181 307.461Z" fill="black"/>
<path opacity="0.1" d="M150.896 293.99C151.355 293.99 151.727 293.618 151.727 293.159C151.727 292.7 151.355 292.328 150.896 292.328C150.437 292.328 150.064 292.7 150.064 293.159C150.064 293.618 150.437 293.99 150.896 293.99Z" fill="black"/>
<path opacity="0.1" d="M142.281 302.604C142.74 302.604 143.113 302.232 143.113 301.773C143.113 301.314 142.74 300.942 142.281 300.942C141.822 300.942 141.45 301.314 141.45 301.773C141.45 302.232 141.822 302.604 142.281 302.604Z" fill="black"/>
<path opacity="0.1" d="M131.379 288.432C131.838 288.432 132.21 288.06 132.21 287.601C132.21 287.142 131.838 286.769 131.379 286.769C130.92 286.769 130.547 287.142 130.547 287.601C130.547 288.06 130.92 288.432 131.379 288.432Z" fill="black"/>
<path opacity="0.1" d="M150.34 290.029C150.799 290.029 151.171 289.657 151.171 289.198C151.171 288.739 150.799 288.367 150.34 288.367C149.881 288.367 149.508 288.739 149.508 289.198C149.508 289.657 149.881 290.029 150.34 290.029Z" fill="black"/>
<path opacity="0.1" d="M147.49 296.489C147.949 296.489 148.321 296.117 148.321 295.658C148.321 295.199 147.949 294.827 147.49 294.827C147.031 294.827 146.659 295.199 146.659 295.658C146.659 296.117 147.031 296.489 147.49 296.489Z" fill="black"/>
<path opacity="0.1" d="M138.741 306.84C139.2 306.84 139.572 306.468 139.572 306.009C139.572 305.55 139.2 305.178 138.741 305.178C138.282 305.178 137.909 305.55 137.909 306.009C137.909 306.468 138.282 306.84 138.741 306.84Z" fill="black"/>
<path opacity="0.1" d="M136.933 302.739C137.392 302.739 137.764 302.367 137.764 301.908C137.764 301.449 137.392 301.077 136.933 301.077C136.473 301.077 136.101 301.449 136.101 301.908C136.101 302.367 136.473 302.739 136.933 302.739Z" fill="black"/>
<path opacity="0.1" d="M132.625 293.505C133.084 293.505 133.457 293.133 133.457 292.674C133.457 292.215 133.084 291.842 132.625 291.842C132.166 291.842 131.794 292.215 131.794 292.674C131.794 293.133 132.166 293.505 132.625 293.505Z" fill="black"/>
<path opacity="0.1" d="M147.771 335.455H122.413V337.889H147.771V335.455Z" fill="black"/>
<path d="M151.516 313.786H118.387V337.052H151.516V313.786Z" fill="#D4DFEC"/>
<path opacity="0.1" d="M139.852 310.591C140.312 310.591 140.684 310.219 140.684 309.76C140.684 309.301 140.312 308.929 139.852 308.929C139.393 308.929 139.021 309.301 139.021 309.76C139.021 310.219 139.393 310.591 139.852 310.591Z" fill="black"/>
<path opacity="0.1" d="M134.849 311.633C135.308 311.633 135.68 311.261 135.68 310.802C135.68 310.343 135.308 309.971 134.849 309.971C134.39 309.971 134.018 310.343 134.018 310.802C134.018 311.261 134.39 311.633 134.849 311.633Z" fill="black"/>
</g>
<defs>
<linearGradient id="paint0_linear" x1="299.497" y1="333.728" x2="299.497" y2="3.97834e-05" gradientUnits="userSpaceOnUse">
<stop offset="0.2" stop-color="#808080" stop-opacity="0.4"/>
<stop offset="0.46" stop-color="#808080" stop-opacity="0.5"/>
<stop offset="1" stop-opacity="0.6"/>
</linearGradient>
<linearGradient id="paint1_linear" x1="298.067" y1="381.992" x2="298.067" y2="79.534" gradientUnits="userSpaceOnUse">
<stop stop-color="#808080" stop-opacity="0.25"/>
<stop offset="0.54" stop-color="#808080" stop-opacity="0.12"/>
<stop offset="1" stop-color="#808080" stop-opacity="0.1"/>
</linearGradient>
<clipPath id="clip0">
<rect width="599" height="403.871" fill="white"/>
</clipPath>
</defs>
</svg>
