<svg width="448" height="75" viewBox="0 0 448 75" fill="none" xmlns="http://www.w3.org/2000/svg">
<path d="M0.1 4.4H12.3L42.1 45.3C42.9 46.5 43.6 47.6333 44.2 48.7C44.8 49.7 45.2333 50.4 45.5 50.8L46 50.6L45.8 45.2V4.4H58.1V73H46.1L16.1 31.7C15.3667 30.7 14.6667 29.6 14 28.4C13.3333 27.1333 12.9 26.3667 12.7 26.1L12.2 26.4C12.2 26.7333 12.2333 27.4 12.3 28.4C12.3667 29.4 12.4 30.5667 12.4 31.9V73H0.1V4.4ZM94.068 74.2C85.5346 74.2 79.2013 71.9667 75.068 67.5C70.9346 63.0333 68.868 56.1 68.868 46.7C68.868 37.3 70.9346 30.3667 75.068 25.9C79.268 21.4333 85.6013 19.2 94.068 19.2C101.801 19.2 107.568 21.3667 111.368 25.7C115.235 30.0333 117.168 36.8 117.168 46V49.6H81.068C81.268 54.8 82.368 58.6333 84.368 61.1C86.4346 63.5 89.7013 64.7 94.168 64.7C97.5013 64.7 100.201 63.8667 102.268 62.2C104.335 60.4667 105.368 57.9333 105.368 54.6H117.168C117.168 61.0667 115.035 65.9667 110.768 69.3C106.501 72.5667 100.935 74.2 94.068 74.2ZM104.668 41.1C104.668 32.8333 101.135 28.7 94.068 28.7C90.068 28.7 87.0346 29.7333 84.968 31.8C82.968 33.8 81.7346 36.9 81.268 41.1H104.668ZM140.234 45.9L122.634 20.4H137.134L147.734 36.9H148.334L159.034 20.4H172.734L154.934 45.6L173.734 73H159.334L147.534 54.6H146.934L134.934 73H121.334L140.234 45.9ZM194.745 74.2C190.279 74.2 187.045 72.9667 185.045 70.5C183.112 67.9667 182.145 64.8333 182.145 61.1V30.2H175.745V20.4H182.345L184.545 5.7H194.145V20.4H203.145V30.2H194.145V59.9C194.145 62.9 195.579 64.4 198.445 64.4H203.145V72.6C202.079 73 200.745 73.3667 199.145 73.7C197.545 74.0333 196.079 74.2 194.745 74.2ZM206.391 4.4H219.991L231.291 48.8C231.757 50.5333 232.391 53.8333 233.191 58.7H233.691C234.491 53.5667 235.057 50.2667 235.391 48.8L245.691 4.4H261.891L272.191 48.8C272.591 50.6667 273.191 53.9667 273.991 58.7H274.491C275.291 53.9667 275.957 50.6667 276.491 48.8L287.691 4.4H299.791L280.991 73H266.191L255.091 27.8C254.491 25.4 253.857 22 253.191 17.6H252.791C252.057 22.4 251.457 25.8 250.991 27.8L239.991 73H225.191L206.391 4.4ZM328.166 74.2C319.5 74.2 313 71.9667 308.666 67.5C304.4 63.0333 302.266 56.1 302.266 46.7C302.266 37.3 304.4 30.3667 308.666 25.9C313 21.4333 319.5 19.2 328.166 19.2C336.833 19.2 343.3 21.4333 347.566 25.9C351.9 30.3667 354.066 37.3 354.066 46.7C354.066 56.1 351.9 63.0333 347.566 67.5C343.3 71.9667 336.833 74.2 328.166 74.2ZM328.166 64.4C332.9 64.4 336.333 63.0333 338.466 60.3C340.6 57.5 341.666 53.2 341.666 47.4V46C341.666 40.2 340.6 35.9333 338.466 33.2C336.333 30.4 332.9 29 328.166 29C323.366 29 319.9 30.4 317.766 33.2C315.7 35.9333 314.666 40.2 314.666 46V47.4C314.666 53.2 315.7 57.5 317.766 60.3C319.9 63.0333 323.366 64.4 328.166 64.4ZM364.746 20.4H374.646L375.746 28.7H376.446C378.846 22.3667 382.779 19.2 388.246 19.2C390.113 19.2 391.779 19.5 393.246 20.1V31.4H389.446C380.979 31.4 376.746 36.1333 376.746 45.6V73H364.746V20.4ZM401.758 0.699995H413.758V43L432.858 20.4H446.958L429.258 40.8L447.958 73H434.158L421.658 49.6L413.758 57.2V73H401.758V0.699995Z" fill="white"/>
</svg>
